<svg width="497" height="100" xmlns="http://www.w3.org/2000/svg">
  <path d="M0 53.762V71.72l15.913 7.618h13.064s2.411-2.873-1.95-5.17c0 0-5.104-.864-7.653-.438-2.555.437-2.705-2.142.144-2.142h26.428s-1.386-17.166-15.77-17.682C13.82 53.336 0 53.762 0 53.762M60.565 99.84V81.877L44.64 74.253H31.582s-2.405 2.885 1.95 5.183c0 0 5.116.857 7.671.42 2.543-.42 2.693 2.17-.156 2.17H14.614s1.38 17.155 15.775 17.665c16.37.576 30.177.15 30.177.15M.001 46.223V28.265l15.913-7.618h13.064s2.411 2.873-1.95 5.165c0 0-5.104.87-7.653.444-2.555-.444-2.705 2.153.144 2.153h26.428s-1.386 17.173-15.77 17.67c-16.356.582-30.176.145-30.176.145M60.566.154v17.958L44.641 25.73H31.583s-2.405-2.867 1.95-5.17c0 0 5.116-.864 7.671-.438 2.543.438 2.693-2.153-.156-2.153H14.614S15.994.796 30.389.298c16.37-.57 30.177-.144 30.177-.144m65.49 53.609v17.958l-15.912 7.618H97.08s-2.4-2.873 1.95-5.17c0 0 5.104-.864 7.653-.438 2.567.438 2.705-2.141-.144-2.141H80.111s1.373-17.167 15.769-17.683c16.363-.57 30.177-.144 30.177-.144M65.496 99.842V81.877l15.913-7.624h13.064s2.4 2.886-1.962 5.183c0 0-5.104.858-7.653.42-2.543-.42-2.7 2.17.156 2.17h26.428s-1.386 17.156-15.77 17.666c-16.362.575-30.176.15-30.176.15m60.561-53.618V28.265l-15.913-7.618H97.08s-2.4 2.873 1.95 5.165c0 0 5.104.87 7.653.444 2.567-.444 2.705 2.153-.144 2.153H80.111s1.374 17.173 15.77 17.67c16.362.583 30.176.145 30.176.145M65.496.154v17.959l15.913 7.617h13.064s2.4-2.867-1.961-5.17c0 0-5.105-.864-7.654-.438-2.543.438-2.7-2.153.156-2.153h26.428S110.056.796 95.672.299C79.31-.271 65.496.154 65.496.154m139.285 39.607c-1.398-12.938-13.262-20.406-28.305-20.49-19.986 0-31.94 14.276-31.94 31.407 0 17.13 11.954 31.412 31.94 31.412 16.159 0 27.471-9.915 28.401-24.28h-11.403c-.923 8.745-6.628 15.715-16.998 15.715-14.288 0-20.262-11.343-20.262-22.847 0-11.511 5.974-22.848 20.262-22.848 9.717 0 14.665 5.039 16.627 11.93zm37.345 25.888c0 6.208-7.468 8.445-12.273 8.445-3.838 0-10.07-1.277-10.07-5.68 0-5.176 4.216-6.73 8.925-7.426 4.792-.773 10.065-.683 13.418-2.663zm10.94-17.85c0-9.4-10.166-12.927-19.866-12.927-10.922 0-21.767 3.353-22.529 14.84h10.935c.48-4.829 4.799-7.09 10.935-7.09 4.408 0 10.263.954 10.263 6.04 0 5.776-7.006 5.003-14.87 6.298-9.201.954-19.08 2.76-19.08 13.88 0 8.715 8.043 13.028 16.969 13.028 5.848 0 12.854-1.65 17.173-5.446.851 4.055 4.03 5.446 8.427 5.446 1.835 0 5.284-.618 6.922-1.134v-6.801c-1.158.161-2.015.161-2.687.161-2.01 0-2.592-.935-2.592-3.352zm12.765 32.846h10.934V54.193c0-7.426 5.177-11.571 10.827-11.571 6.616 0 8.733 3.293 8.733 9.4v28.623h10.935v-26.11c0-7.51 3.167-11.913 10.545-11.913 8.535 0 9.033 4.918 9.033 11.996v26.027h10.917V49.88c0-10.875-6.136-15.008-16.591-15.008-7.18 0-11.894 2.843-15.541 7.402-2.202-5.08-7.858-7.402-13.904-7.402-7.858 0-11.985 3.011-15.254 7.402h-.287v-6.196h-10.347zm88.809-21.804c0-8.02 3.623-16.219 13.904-16.219 8.445 0 13.706 5.866 13.706 15.703 0 7.75-4.127 15.77-13.904 15.77-9.495 0-13.706-7.582-13.706-15.254m38.154-39.75h-10.916v22.77h-.198c-3.36-4.92-10.257-6.989-16.501-6.989-10.845 0-21.48 7.066-21.48 23.183 0 13.37 7.576 23.813 23.207 23.813 6.238 0 12.464-2.165 15.344-7.246h.197v6.023h10.347zm53.954 41.82c1.836-13.37-7.768-26.039-23.399-26.039-14.773 0-23.987 10.863-23.987 23.543 0 13.7 8.734 23.453 24.275 23.453 10.827 0 20.052-5.446 22.44-15.181h-10.354c-1.919 4.912-5.758 7.407-12.086 7.407-9.105 0-13.34-6.202-13.34-13.184zm-36.45-6.473c.305-6.64 5.475-11.816 13.051-11.816 7.396 0 12.092 5.602 12.464 11.816zm43.156 26.207h10.935V54.36c0-6.562 4.708-11.738 12.002-11.738 6.418 0 9.495 3.023 9.67 10.005v28.018h10.94V50.054c0-10.011-6.814-15.182-17.55-15.182-6.509 0-12.183 3.011-15.434 7.93l-.198-.18v-6.544h-10.365z"/>
</svg>
