<?xml version="1.0" encoding="UTF-8"?>
<svg id="Layer_1" xmlns="http://www.w3.org/2000/svg" version="1.1" viewBox="0 0 718.69 248.84">
  <!-- Generator: Adobe Illustrator 30.1.0, SVG Export Plug-In . SVG Version: 2.1.1 Build 136)  -->
  <defs>
    <style>
      .st0 {
        fill: #00823a;
      }
    </style>
  </defs>
  <g>
    <polygon class="st0" points="283.14 34.36 277.41 34.36 277.41 65.24 299.28 65.24 299.28 60.39 283.14 60.39 283.14 34.36"/>
    <path class="st0" d="M320.17,42.94c-1.9-1.04-4.06-1.57-6.51-1.57s-4.56.52-6.44,1.57c-1.88,1.04-3.37,2.46-4.45,4.26-1.09,1.79-1.63,3.88-1.63,6.26s.54,4.4,1.63,6.22c1.09,1.82,2.58,3.26,4.48,4.3,1.9,1.04,4.04,1.57,6.42,1.57s4.57-.52,6.48-1.57c1.91-1.04,3.4-2.47,4.48-4.28,1.07-1.81,1.61-3.89,1.61-6.24s-.54-4.47-1.61-6.26c-1.07-1.79-2.56-3.21-4.45-4.26ZM319.77,57.37c-.6,1.13-1.43,2-2.49,2.6-1.06.6-2.26.9-3.62.9s-2.47-.3-3.53-.9c-1.06-.6-1.9-1.47-2.51-2.6-.62-1.13-.93-2.43-.93-3.9s.31-2.8.93-3.9c.62-1.1,1.46-1.96,2.51-2.56,1.06-.6,2.25-.9,3.57-.9s2.51.3,3.57.9c1.06.6,1.89,1.46,2.49,2.56.6,1.1.9,2.4.9,3.9s-.3,2.77-.9,3.9Z"/>
    <path class="st0" d="M349.94,42.48c-1.46-.73-3.14-1.1-5.05-1.1-2.06,0-3.87.41-5.45,1.23-1.06.55-1.92,1.27-2.62,2.13v-3.05h-5.25v23.55h5.47v-11.91c0-1.59.27-2.9.82-3.95.54-1.04,1.32-1.83,2.32-2.36,1-.53,2.15-.79,3.44-.79,1.79,0,3.18.51,4.15,1.54.97,1.03,1.46,2.59,1.46,4.68v12.79h5.51v-13.5c0-2.38-.43-4.34-1.3-5.87-.87-1.53-2.03-2.66-3.48-3.4Z"/>
    <path class="st0" d="M379.29,44.51c-.66-.74-1.4-1.36-2.25-1.84-1.56-.87-3.32-1.3-5.29-1.3-2.26,0-4.3.5-6.11,1.5-1.81,1-3.23,2.41-4.26,4.23-1.03,1.82-1.54,3.94-1.54,6.35s.51,4.56,1.54,6.37c1.03,1.81,2.45,3.21,4.26,4.21,1.81,1,3.84,1.5,6.11,1.5,2.06,0,3.86-.43,5.4-1.3.94-.53,1.75-1.26,2.45-2.13v3.13h5.25v-32.73h-5.56v12ZM378.47,57.37c-.63,1.13-1.47,2-2.51,2.6-1.04.6-2.23.9-3.55.9s-2.51-.3-3.55-.9c-1.04-.6-1.88-1.47-2.51-2.6-.63-1.13-.95-2.43-.95-3.9s.32-2.8.95-3.9c.63-1.1,1.47-1.96,2.51-2.56,1.04-.6,2.23-.9,3.55-.9s2.51.3,3.55.9c1.04.6,1.88,1.46,2.51,2.56.63,1.1.95,2.4.95,3.9s-.32,2.77-.95,3.9Z"/>
    <path class="st0" d="M409.17,42.94c-1.9-1.04-4.06-1.57-6.51-1.57s-4.56.52-6.44,1.57c-1.88,1.04-3.37,2.46-4.45,4.26-1.09,1.79-1.63,3.88-1.63,6.26s.54,4.4,1.63,6.22c1.09,1.82,2.58,3.26,4.48,4.3,1.9,1.04,4.04,1.57,6.42,1.57s4.57-.52,6.48-1.57c1.91-1.04,3.4-2.47,4.48-4.28,1.07-1.81,1.61-3.89,1.61-6.24s-.54-4.47-1.61-6.26c-1.07-1.79-2.56-3.21-4.45-4.26ZM408.77,57.37c-.6,1.13-1.43,2-2.49,2.6-1.06.6-2.26.9-3.62.9s-2.47-.3-3.53-.9c-1.06-.6-1.9-1.47-2.51-2.6-.62-1.13-.93-2.43-.93-3.9s.31-2.8.93-3.9c.62-1.1,1.46-1.96,2.51-2.56,1.06-.6,2.25-.9,3.57-.9s2.51.3,3.57.9c1.06.6,1.89,1.46,2.49,2.56.6,1.1.9,2.4.9,3.9s-.3,2.77-.9,3.9Z"/>
    <path class="st0" d="M438.94,42.48c-1.46-.73-3.14-1.1-5.05-1.1-2.06,0-3.87.41-5.45,1.23-1.06.55-1.92,1.27-2.62,2.13v-3.05h-5.25v23.55h5.47v-11.91c0-1.59.27-2.9.82-3.95.54-1.04,1.32-1.83,2.32-2.36,1-.53,2.15-.79,3.44-.79,1.79,0,3.18.51,4.15,1.54.97,1.03,1.46,2.59,1.46,4.68v12.79h5.51v-13.5c0-2.38-.43-4.34-1.3-5.87-.87-1.53-2.03-2.66-3.48-3.4Z"/>
    <path class="st0" d="M486.37,49.6c-.36-.16-.72-.3-1.1-.42,1.18-.62,2.14-1.48,2.87-2.58.76-1.16,1.15-2.56,1.15-4.21,0-2.44-.97-4.39-2.91-5.84-1.94-1.46-4.75-2.18-8.42-2.18h-14.51v30.87h15.39c3.97,0,6.96-.73,8.98-2.21,2.01-1.47,3.02-3.53,3.02-6.17,0-1.79-.4-3.29-1.19-4.5-.79-1.21-1.88-2.12-3.26-2.76ZM477.29,38.86c1.97,0,3.5.35,4.59,1.06,1.09.71,1.63,1.78,1.63,3.22s-.54,2.47-1.63,3.18c-1.09.71-2.62,1.06-4.59,1.06h-8.12v-8.51h8.12ZM483.37,59.68c-1.15.71-2.78,1.06-4.9,1.06h-9.31v-8.91h9.31c2.12,0,3.75.36,4.9,1.08,1.15.72,1.72,1.85,1.72,3.37s-.57,2.69-1.72,3.4Z"/>
    <path class="st0" d="M513.56,42.94c-1.9-1.04-4.06-1.57-6.51-1.57s-4.56.52-6.44,1.57c-1.88,1.04-3.37,2.46-4.45,4.26-1.09,1.79-1.63,3.88-1.63,6.26s.54,4.4,1.63,6.22c1.09,1.82,2.58,3.26,4.48,4.3,1.9,1.04,4.04,1.57,6.42,1.57s4.57-.52,6.48-1.57c1.91-1.04,3.4-2.47,4.48-4.28,1.07-1.81,1.61-3.89,1.61-6.24s-.54-4.47-1.61-6.26c-1.07-1.79-2.56-3.21-4.45-4.26ZM513.16,57.37c-.6,1.13-1.43,2-2.49,2.6-1.06.6-2.26.9-3.62.9s-2.47-.3-3.53-.9c-1.06-.6-1.9-1.47-2.51-2.6-.62-1.13-.93-2.43-.93-3.9s.31-2.8.93-3.9c.62-1.1,1.46-1.96,2.51-2.56,1.06-.6,2.25-.9,3.57-.9s2.51.3,3.57.9c1.06.6,1.89,1.46,2.49,2.56.6,1.1.9,2.4.9,3.9s-.3,2.77-.9,3.9Z"/>
    <path class="st0" d="M530.21,45.11v-3.43h-5.25v23.55h5.47v-11.38c0-2.47.62-4.31,1.85-5.51,1.23-1.21,2.91-1.81,5.03-1.81.18,0,.37,0,.57.02.21.01.41.04.62.07v-5.25c-2.21,0-4.07.42-5.6,1.26-1.13.62-2.03,1.45-2.69,2.48Z"/>
    <path class="st0" d="M560.09,42.94c-1.9-1.04-4.06-1.57-6.51-1.57s-4.56.52-6.44,1.57c-1.88,1.04-3.37,2.46-4.45,4.26-1.09,1.79-1.63,3.88-1.63,6.26s.54,4.4,1.63,6.22c1.09,1.82,2.58,3.26,4.48,4.3,1.9,1.04,4.04,1.57,6.42,1.57s4.57-.52,6.48-1.57c1.91-1.04,3.4-2.47,4.48-4.28,1.07-1.81,1.61-3.89,1.61-6.24s-.54-4.47-1.61-6.26c-1.07-1.79-2.56-3.21-4.45-4.26ZM559.7,57.37c-.6,1.13-1.43,2-2.49,2.6-1.06.6-2.26.9-3.62.9s-2.47-.3-3.53-.9c-1.06-.6-1.9-1.47-2.51-2.6-.62-1.13-.93-2.43-.93-3.9s.31-2.8.93-3.9c.62-1.1,1.46-1.96,2.51-2.56,1.06-.6,2.25-.9,3.57-.9s2.51.3,3.57.9c1.06.6,1.89,1.46,2.49,2.56.6,1.1.9,2.4.9,3.9s-.3,2.77-.9,3.9Z"/>
    <path class="st0" d="M588.74,53.59c0,1.56-.26,2.87-.79,3.93s-1.28,1.85-2.25,2.38c-.97.53-2.1.79-3.4.79-1.74,0-3.09-.52-4.06-1.57-.97-1.04-1.46-2.61-1.46-4.7v-12.75h-5.56v13.45c0,2.35.43,4.3,1.3,5.84.87,1.54,2.07,2.69,3.59,3.44,1.53.75,3.29,1.12,5.29,1.12,1.82,0,3.5-.41,5.03-1.23,1.02-.55,1.86-1.27,2.56-2.12v3.04h5.25v-23.55h-5.51v11.91Z"/>
    <path class="st0" d="M619.61,44.81c-.78-.93-1.69-1.68-2.76-2.22-1.6-.81-3.4-1.21-5.4-1.21-2.26,0-4.29.47-6.09,1.41-1.79.94-3.21,2.27-4.26,3.99-1.04,1.72-1.57,3.73-1.57,6.02s.52,4.25,1.57,5.95c1.04,1.71,2.46,3.04,4.26,3.99,1.79.96,3.82,1.43,6.09,1.43,2,0,3.8-.41,5.4-1.23.95-.49,1.77-1.15,2.49-1.94v1.28c0,2.41-.6,4.21-1.81,5.4-1.21,1.19-3.09,1.79-5.65,1.79-1.68,0-3.29-.26-4.85-.79-1.56-.53-2.85-1.22-3.88-2.07l-2.47,4.1c1.35,1.12,3.05,1.96,5.09,2.54,2.04.57,4.17.86,6.37.86,4.12,0,7.26-1.01,9.44-3.02,2.18-2.01,3.26-5.15,3.26-9.42v-19.98h-5.25v3.13ZM618.53,56.26c-.6,1.01-1.45,1.81-2.54,2.38-1.09.57-2.32.86-3.7.86s-2.62-.29-3.73-.86c-1.1-.57-1.96-1.37-2.56-2.38-.6-1.01-.9-2.17-.9-3.46s.3-2.53.9-3.53c.6-1,1.46-1.78,2.56-2.34,1.1-.56,2.34-.84,3.73-.84s2.62.28,3.7.84c1.09.56,1.93,1.34,2.54,2.34.6,1,.9,2.18.9,3.53s-.3,2.45-.9,3.46Z"/>
    <path class="st0" d="M650.51,42.48c-1.46-.73-3.14-1.1-5.05-1.1-2.06,0-3.87.41-5.45,1.23-.95.5-1.74,1.13-2.4,1.87v-11.97h-5.47v32.73h5.47v-11.91c0-1.59.27-2.9.82-3.95.54-1.04,1.32-1.83,2.32-2.36,1-.53,2.15-.79,3.44-.79,1.79,0,3.18.51,4.15,1.54.97,1.03,1.46,2.59,1.46,4.68v12.79h5.51v-13.5c0-2.38-.43-4.34-1.3-5.87-.87-1.53-2.03-2.66-3.48-3.4Z"/>
    <path class="st0" d="M691.57,42.94c-1.9-1.04-4.06-1.57-6.51-1.57s-4.56.52-6.44,1.57c-1.88,1.04-3.37,2.46-4.45,4.26-1.09,1.79-1.63,3.88-1.63,6.26s.54,4.4,1.63,6.22c1.09,1.82,2.58,3.26,4.48,4.3,1.9,1.04,4.04,1.57,6.42,1.57s4.57-.52,6.48-1.57c1.91-1.04,3.4-2.47,4.48-4.28,1.07-1.81,1.61-3.89,1.61-6.24s-.54-4.47-1.61-6.26c-1.07-1.79-2.56-3.21-4.45-4.26ZM691.17,57.37c-.6,1.13-1.43,2-2.49,2.6-1.06.6-2.26.9-3.62.9s-2.47-.3-3.53-.9c-1.06-.6-1.9-1.47-2.51-2.6-.62-1.13-.93-2.43-.93-3.9s.31-2.8.93-3.9c.62-1.1,1.46-1.96,2.51-2.56,1.06-.6,2.25-.9,3.57-.9s2.51.3,3.57.9c1.06.6,1.89,1.46,2.49,2.56.6,1.1.9,2.4.9,3.9s-.3,2.77-.9,3.9Z"/>
    <path class="st0" d="M709.89,37.61c.59-.63,1.46-.95,2.6-.95.56,0,1.1.09,1.63.26.53.18.98.4,1.37.66l1.54-4.1c-.59-.44-1.32-.76-2.18-.97-.87-.21-1.79-.31-2.76-.31-2.71,0-4.79.74-6.24,2.23-1.46,1.49-2.18,3.48-2.18,5.98v1.46h-3.88v4.41h3.88v18.97h5.47v-18.97h6.35v-4.41h-6.48v-1.46c0-1.23.29-2.17.88-2.8Z"/>
  </g>
  <g>
    <path class="st0" d="M108.93.83C49.66.83,1.62,56.16,1.62,124.42s48.04,123.59,107.31,123.59,107.31-55.33,107.31-123.59S168.19.83,108.93.83ZM131.37,80.81c6.69-7.2,14.12-15.34,16.57-25.11,1.77-7.07,12.68-4.06,10.91,3.01-2.93,11.68-11.46,21.48-19.48,30.1-4.97,5.35-12.96-2.67-8-8ZM97.39,41.42c2.5,8.49,7.55,15.84,15.07,20.63,6.13,3.9.45,13.69-5.71,9.77-10.02-6.37-16.92-16.04-20.27-27.39-2.07-7.01,8.86-9.98,10.91-3.01ZM65.7,60.28c7.41,16.78,29.09,35.5,48.5,29.99,7.03-2,10,8.93,3.01,10.91-24.21,6.88-51.76-13.63-61.28-35.19-2.92-6.61,6.84-12.36,9.77-5.71ZM46.06,88.92c10.63,10.95,22.41,20.34,36.37,26.68,6.63,3.01.87,12.76-5.71,9.77-14.76-6.7-27.43-16.88-38.66-28.45-5.08-5.23,2.92-13.24,8-8ZM104.78,217.57c-.84,7.16-12.16,7.22-11.32,0,1.07-9.11,1.44-18.32,1.19-27.49-.23-8.46-.91-17.61-5.46-25-4.92-8-13.93-11.44-22.6-13.75-9.83-2.62-19.92-4.48-30.11-4.52-7.29-.03-7.28-11.34,0-11.32,12.01.05,24.27,2.26,35.77,5.66,9.51,2.81,18.72,7.31,24.79,15.4,12.19,16.26,9.97,42.01,7.73,61ZM102.42,132.4c-7.2-.69-7.24-12.01,0-11.32,13.89,1.34,29.72-1.36,41.68-8.98,11.49-7.32,20.29-20.31,27.35-31.68,3.84-6.18,13.62-.49,9.77,5.71-8.13,13.08-18.23,27.34-31.41,35.74-13.5,8.6-31.67,12.04-47.39,10.53ZM186.98,146.82c-15.89.88-34.02-1.6-46.47,10.69-5.95,5.88-6.2,14.69-6.63,22.54-.44,8.05-.77,16.61.64,24.6,1.27,7.13-9.64,10.17-10.91,3.01-1.77-9.99-1.61-20.47-.86-30.55.72-9.56,1.92-18.88,8.54-26.31,14.5-16.3,36.1-14.21,55.68-15.29,7.29-.4,7.24,10.91,0,11.32Z"/>
    <g>
      <polygon class="st0" points="304.66 160.64 347.36 160.64 347.36 140.46 304.66 140.46 304.66 124.4 353.12 124.4 353.12 103.25 277.89 103.25 277.89 199.36 354.91 199.36 354.91 178.21 304.66 178.21 304.66 160.64"/>
      <path class="st0" d="M428.29,131.95c-6.64-5.58-15.99-8.37-28.08-8.37-5.86,0-11.74.78-17.64,2.33-5.9,1.56-10.96,3.71-15.17,6.45l8.65,17.57c2.56-1.83,5.7-3.34,9.4-4.53,3.71-1.19,7.35-1.78,10.91-1.78,5.49,0,9.49,1.12,12.01,3.36,2.29,2.04,3.52,4.86,3.73,8.44h-14.78c-7.6,0-13.84.89-18.74,2.68-4.9,1.78-8.51,4.37-10.85,7.76-2.33,3.39-3.5,7.37-3.5,11.94,0,4.21,1.08,8.05,3.23,11.53,2.15,3.48,5.31,6.23,9.47,8.24,4.16,2.01,9.17,3.02,15.03,3.02,6.5,0,11.74-1.3,15.72-3.91,2.68-1.75,4.75-4.09,6.25-6.98v9.66h24.3v-41.32c0-11.81-3.32-20.5-9.95-26.08ZM407.15,181.99c-2.33,1.42-4.97,2.13-7.89,2.13s-5.4-.71-7.14-2.13c-1.74-1.42-2.61-3.23-2.61-5.42,0-2.38.84-4.21,2.54-5.49,1.69-1.28,4.64-1.92,8.86-1.92h11.26v6.32c-1.01,2.93-2.68,5.1-5.01,6.52Z"/>
      <rect class="st0" x="454.71" y="97.49" width="26.08" height="101.87"/>
      <rect class="st0" x="497.68" y="124.81" width="26.08" height="74.55"/>
      <path class="st0" d="M522.26,92.82c-2.93-2.47-6.77-3.71-11.53-3.71s-8.72,1.3-11.6,3.91c-2.88,2.61-4.32,5.88-4.32,9.82s1.44,7.23,4.32,9.88c2.88,2.66,6.75,3.98,11.6,3.98s8.72-1.37,11.6-4.12c2.88-2.75,4.32-6.18,4.32-10.3,0-3.84-1.46-7-4.39-9.47Z"/>
      <path class="st0" d="M604.77,127.14c-4.67-2.38-9.88-3.57-15.65-3.57-6.23,0-11.81,1.4-16.75,4.19-2.52,1.42-4.76,3.17-6.73,5.25v-8.2h-24.99v74.55h26.08v-35.83c0-4.21.64-7.6,1.92-10.16,1.28-2.56,3.07-4.46,5.35-5.7,2.29-1.24,4.85-1.85,7.69-1.85,3.66,0,6.57,1.21,8.72,3.64,2.15,2.43,3.23,6.29,3.23,11.6v38.3h26.22v-42.56c0-7.69-1.35-13.96-4.05-18.81-2.7-4.85-6.38-8.46-11.05-10.85Z"/>
      <path class="st0" d="M692.35,124.81v9.04c-1.96-2.69-4.34-4.83-7.14-6.43-4.49-2.56-9.93-3.84-16.34-3.84s-12.52,1.47-18.05,4.39c-5.54,2.93-9.98,7.09-13.32,12.49-3.34,5.4-5.01,11.76-5.01,19.08s1.67,13.66,5.01,19.01c3.34,5.35,7.78,9.52,13.32,12.49,5.54,2.98,11.55,4.46,18.05,4.46s11.85-1.28,16.34-3.84c2.18-1.24,4.1-2.82,5.77-4.73v2.26c0,5.86-1.53,10.32-4.6,13.39-3.07,3.07-8.08,4.6-15.03,4.6-4.49,0-9.04-.71-13.66-2.13-4.62-1.42-8.49-3.32-11.6-5.7l-9.47,18.12c4.48,3.2,9.97,5.63,16.47,7.28,6.5,1.65,13.32,2.47,20.46,2.47,13.91,0,24.64-3.39,32.19-10.16,7.55-6.77,11.33-17.21,11.33-31.3v-60.96h-24.71ZM689.27,167.51c-1.42,2.29-3.32,4.07-5.7,5.35-2.38,1.28-5.17,1.92-8.37,1.92s-5.88-.64-8.31-1.92c-2.43-1.28-4.37-3.07-5.83-5.35-1.47-2.29-2.2-4.94-2.2-7.96s.73-5.67,2.2-7.96c1.46-2.29,3.41-4.05,5.83-5.29,2.42-1.24,5.19-1.85,8.31-1.85s5.99.62,8.37,1.85c2.38,1.24,4.28,3,5.7,5.29,1.42,2.29,2.13,4.94,2.13,7.96s-.71,5.68-2.13,7.96Z"/>
    </g>
  </g>
</svg>